<svg xmlns="http://www.w3.org/2000/svg" viewBox="-0.02 -0.02 3.04 3.04">
<defs><linearGradient id="g0" gradientUnits="userSpaceOnUse" x1="0" y1="0" x2="1" y2="1"><stop offset="0" stop-color="#894E73"/><stop offset="1" stop-color="#D24B43"/></linearGradient><linearGradient id="g1" gradientUnits="userSpaceOnUse" x1="0" y1="1.5" x2="1" y2="1.5"><stop offset="0" stop-color="#E14729"/><stop offset="1" stop-color="#F4A640"/></linearGradient><linearGradient id="g2" gradientUnits="userSpaceOnUse" x1="0" y1="2" x2="1" y2="1"><stop offset="0" stop-color="#F2A03B"/><stop offset="1" stop-color="#E14729"/></linearGradient><linearGradient id="g3" gradientUnits="userSpaceOnUse" x1="0.5" y1="2" x2="1" y2="3"><stop offset="0" stop-color="#F4A640"/><stop offset="1" stop-color="#E14729"/></linearGradient><linearGradient id="g4" gradientUnits="userSpaceOnUse" x1="1" y1="0.5" x2="2" y2="1"><stop offset="0" stop-color="#C2C684"/><stop offset="1" stop-color="#A8B468"/></linearGradient><linearGradient id="g5" gradientUnits="userSpaceOnUse" x1="2" y1="0" x2="3" y2="1"><stop offset="0" stop-color="#9CB163"/><stop offset="1" stop-color="#7E9A4D"/></linearGradient><linearGradient id="g6" gradientUnits="userSpaceOnUse" x1="1" y1="1" x2="2" y2="2"><stop offset="0" stop-color="#B0BC72"/><stop offset="1" stop-color="#7E9A4D"/></linearGradient><linearGradient id="g7" gradientUnits="userSpaceOnUse" x1="2.5" y1="1" x2="2.5" y2="2"><stop offset="0" stop-color="#54ABBB"/><stop offset="1" stop-color="#3A8FA3"/></linearGradient><linearGradient id="g8" gradientUnits="userSpaceOnUse" x1="2" y1="2" x2="3" y2="3"><stop offset="0" stop-color="#3A8FA3"/><stop offset="1" stop-color="#26707F"/></linearGradient><linearGradient id="g9" gradientUnits="userSpaceOnUse" x1="1" y1="2.6" x2="2" y2="2.6"><stop offset="0" stop-color="#348699"/><stop offset="1" stop-color="#2C7A8D"/></linearGradient></defs>
<path d="M0,0 A1,1 0 0,1 1,1 L0,1 Z" fill="url(#g0)"/><path d="M0,1 L1,1 L0,2 Z" fill="url(#g1)"/><path d="M1,1 L1,2 L0,2 Z" fill="url(#g2)"/><path d="M0,2 A1,1 0 0,0 1,3 L1,2 Z" fill="url(#g3)"/><path d="M1,1 A1,1 0 0,1 2,0 L2,1 Z" fill="url(#g4)"/><path d="M2,0 A1,1 0 0,1 3,1 L2,1 Z" fill="url(#g5)"/><path d="M1,1 A1,1 0 0,0 2,2 L2,1 Z" fill="url(#g6)"/><path d="M2,1 A1,1 0 0,1 3,2 L2,2 Z" fill="url(#g7)"/><path d="M3,2 A1,1 0 0,1 2,3 L2,2 Z" fill="url(#g8)"/><path d="M2,3 A1,1 0 0,1 1,2 L2,2 Z" fill="url(#g9)"/>
</svg>