<svg xmlns="http://www.w3.org/2000/svg" viewBox="-0.02 -0.02 3.04 3.04">
<defs><linearGradient id="g0" gradientUnits="userSpaceOnUse" x1="0" y1="0" x2="1" y2="1"><stop offset="0" stop-color="#4A4178"/><stop offset="1" stop-color="#8E3A5A"/></linearGradient><linearGradient id="g1" gradientUnits="userSpaceOnUse" x1="0" y1="1.5" x2="1" y2="1.5"><stop offset="0" stop-color="#A6294E"/><stop offset="1" stop-color="#D9A53C"/></linearGradient><linearGradient id="g2" gradientUnits="userSpaceOnUse" x1="0" y1="2" x2="1" y2="1"><stop offset="0" stop-color="#DCAB4A"/><stop offset="1" stop-color="#A6294E"/></linearGradient><linearGradient id="g3" gradientUnits="userSpaceOnUse" x1="0.5" y1="2" x2="1" y2="3"><stop offset="0" stop-color="#D9A53C"/><stop offset="1" stop-color="#A6294E"/></linearGradient><linearGradient id="g4" gradientUnits="userSpaceOnUse" x1="1" y1="0.5" x2="2" y2="1"><stop offset="0" stop-color="#8FB3A2"/><stop offset="1" stop-color="#6E9C8C"/></linearGradient><linearGradient id="g5" gradientUnits="userSpaceOnUse" x1="2" y1="0" x2="3" y2="1"><stop offset="0" stop-color="#5A918E"/><stop offset="1" stop-color="#42797A"/></linearGradient><linearGradient id="g6" gradientUnits="userSpaceOnUse" x1="1" y1="1" x2="2" y2="2"><stop offset="0" stop-color="#7BA796"/><stop offset="1" stop-color="#3F7878"/></linearGradient><linearGradient id="g7" gradientUnits="userSpaceOnUse" x1="2.5" y1="1" x2="2.5" y2="2"><stop offset="0" stop-color="#2F6BA4"/><stop offset="1" stop-color="#1F528B"/></linearGradient><linearGradient id="g8" gradientUnits="userSpaceOnUse" x1="2" y1="2" x2="3" y2="3"><stop offset="0" stop-color="#1F528B"/><stop offset="1" stop-color="#143A6B"/></linearGradient><linearGradient id="g9" gradientUnits="userSpaceOnUse" x1="1" y1="2.6" x2="2" y2="2.6"><stop offset="0" stop-color="#1C4A80"/><stop offset="1" stop-color="#173F73"/></linearGradient></defs>
<path d="M0,0 A1,1 0 0,1 1,1 L0,1 Z" fill="url(#g0)"/><path d="M0,1 L1,1 L0,2 Z" fill="url(#g1)"/><path d="M1,1 L1,2 L0,2 Z" fill="url(#g2)"/><path d="M0,2 A1,1 0 0,0 1,3 L1,2 Z" fill="url(#g3)"/><path d="M1,1 A1,1 0 0,1 2,0 L2,1 Z" fill="url(#g4)"/><path d="M2,0 A1,1 0 0,1 3,1 L2,1 Z" fill="url(#g5)"/><path d="M1,1 A1,1 0 0,0 2,2 L2,1 Z" fill="url(#g6)"/><path d="M2,1 A1,1 0 0,1 3,2 L2,2 Z" fill="url(#g7)"/><path d="M3,2 A1,1 0 0,1 2,3 L2,2 Z" fill="url(#g8)"/><path d="M2,3 A1,1 0 0,1 1,2 L2,2 Z" fill="url(#g9)"/>
</svg>