<svg xmlns="http://www.w3.org/2000/svg" viewBox="-0.02 -0.02 3.04 3.04">
<defs><linearGradient id="g0" gradientUnits="userSpaceOnUse" x1="0" y1="0" x2="1" y2="1"><stop offset="0" stop-color="#634093"/><stop offset="1" stop-color="#F0584A"/></linearGradient><linearGradient id="g1" gradientUnits="userSpaceOnUse" x1="0" y1="1.5" x2="1" y2="1.5"><stop offset="0" stop-color="#ED174B"/><stop offset="1" stop-color="#F7941E"/></linearGradient><linearGradient id="g2" gradientUnits="userSpaceOnUse" x1="0" y1="2" x2="1" y2="1"><stop offset="0" stop-color="#F68A2E"/><stop offset="1" stop-color="#ED174B"/></linearGradient><linearGradient id="g3" gradientUnits="userSpaceOnUse" x1="0.5" y1="2" x2="1" y2="3"><stop offset="0" stop-color="#F7941E"/><stop offset="1" stop-color="#ED174B"/></linearGradient><linearGradient id="g4" gradientUnits="userSpaceOnUse" x1="1" y1="0.5" x2="2" y2="1"><stop offset="0" stop-color="#A5CD6B"/><stop offset="1" stop-color="#7DBF55"/></linearGradient><linearGradient id="g5" gradientUnits="userSpaceOnUse" x1="2" y1="0" x2="3" y2="1"><stop offset="0" stop-color="#4FB94F"/><stop offset="1" stop-color="#2FB44C"/></linearGradient><linearGradient id="g6" gradientUnits="userSpaceOnUse" x1="1" y1="1" x2="2" y2="2"><stop offset="0" stop-color="#8CC75F"/><stop offset="1" stop-color="#2DB44A"/></linearGradient><linearGradient id="g7" gradientUnits="userSpaceOnUse" x1="2.5" y1="1" x2="2.5" y2="2"><stop offset="0" stop-color="#2E9FD6"/><stop offset="1" stop-color="#1175AF"/></linearGradient><linearGradient id="g8" gradientUnits="userSpaceOnUse" x1="2" y1="2" x2="3" y2="3"><stop offset="0" stop-color="#1278B2"/><stop offset="1" stop-color="#04568C"/></linearGradient><linearGradient id="g9" gradientUnits="userSpaceOnUse" x1="1" y1="2.6" x2="2" y2="2.6"><stop offset="0" stop-color="#0E6FA9"/><stop offset="1" stop-color="#0A65A2"/></linearGradient></defs>
<path d="M0,0 A1,1 0 0,1 1,1 L0,1 Z" fill="url(#g0)"/><path d="M0,1 L1,1 L0,2 Z" fill="url(#g1)"/><path d="M1,1 L1,2 L0,2 Z" fill="url(#g2)"/><path d="M0,2 A1,1 0 0,0 1,3 L1,2 Z" fill="url(#g3)"/><path d="M1,1 A1,1 0 0,1 2,0 L2,1 Z" fill="url(#g4)"/><path d="M2,0 A1,1 0 0,1 3,1 L2,1 Z" fill="url(#g5)"/><path d="M1,1 A1,1 0 0,0 2,2 L2,1 Z" fill="url(#g6)"/><path d="M2,1 A1,1 0 0,1 3,2 L2,2 Z" fill="url(#g7)"/><path d="M3,2 A1,1 0 0,1 2,3 L2,2 Z" fill="url(#g8)"/><path d="M2,3 A1,1 0 0,1 1,2 L2,2 Z" fill="url(#g9)"/>
</svg>